<?xml version="1.0" standalone="no"?>
<!DOCTYPE svg PUBLIC "-//W3C//DTD SVG 20010904//EN"
 "http://www.w3.org/TR/2001/REC-SVG-20010904/DTD/svg10.dtd">
<svg version="1.0" xmlns="http://www.w3.org/2000/svg"
 width="516.000000pt" height="588.000000pt" viewBox="0 0 516.000000 588.000000"
 preserveAspectRatio="xMidYMid meet">
<metadata>
Created by potrace 1.16, written by Peter Selinger 2001-2019
</metadata>
<g transform="translate(0.000000,588.000000) scale(0.100000,-0.100000)"
fill="#000000" stroke="none">
<path d="M1155 5125 c-130 -18 -207 -41 -315 -91 -103 -49 -170 -96 -253 -176
-49 -49 -137 -159 -137 -173 0 -3 -11 -22 -23 -43 -13 -20 -27 -49 -31 -65 -3
-15 -18 -52 -31 -82 -14 -29 -25 -63 -25 -74 0 -11 -4 -31 -10 -45 -21 -57
-25 -280 -25 -1461 0 -937 3 -1252 13 -1322 20 -150 98 -342 185 -458 50 -66
183 -189 234 -216 26 -14 62 -33 78 -42 60 -32 188 -79 243 -88 59 -10 86 -13
190 -24 86 -10 1931 -12 2287 -4 376 9 480 30 667 132 136 75 286 214 319 297
6 13 14 27 19 30 10 6 95 204 103 240 3 14 11 43 18 65 17 54 26 2622 10 2762
-35 298 -200 561 -445 709 -117 70 -290 123 -441 134 -200 15 -2523 11 -2630
-5z m1535 -785 c27 -27 97 -137 152 -240 174 -323 251 -645 257 -1073 3 -227
-31 -514 -53 -446 -99 309 -125 373 -213 539 -140 262 -292 438 -506 585 -38
25 -77 48 -89 50 -11 3 -28 11 -37 18 -9 8 -41 22 -71 32 -84 28 -149 60 -142
72 4 5 59 47 122 93 63 46 185 135 270 199 284 210 275 206 310 171z m-180
-1080 c0 -5 -39 -54 -88 -107 -112 -125 -176 -202 -190 -230 -7 -12 -18 -28
-26 -35 -25 -26 -107 -159 -132 -216 -14 -31 -29 -59 -35 -62 -5 -4 -11 -16
-13 -27 -3 -11 -18 -50 -35 -86 -33 -72 -41 -98 -78 -267 -22 -103 -24 -130
-19 -265 3 -82 12 -183 19 -222 8 -40 12 -73 10 -73 -2 0 -18 7 -34 16 -17 8
-39 17 -49 19 -16 3 -137 58 -202 92 -15 7 -58 25 -95 39 -37 14 -117 49 -178
78 -60 30 -134 64 -163 77 -28 13 -52 28 -52 34 0 22 41 120 65 156 14 21 25
43 25 48 0 5 20 38 45 74 25 37 45 70 45 76 0 5 4 11 9 13 5 2 26 28 47 58 39
56 51 70 158 189 77 87 223 216 316 280 205 142 326 211 525 298 137 60 125
56 125 43z m1253 -633 c6 -41 25 -214 46 -412 23 -213 33 -332 30 -360 -4 -29
-6 -30 -69 -38 -122 -15 -412 -1 -560 28 -74 15 -142 29 -150 32 -8 3 -23 8
-33 9 -9 2 -43 13 -75 25 -31 12 -78 27 -103 34 -75 21 -117 41 -401 188 -38
20 -75 43 -84 51 -8 9 -20 16 -25 16 -11 0 -169 117 -229 169 -36 32 -27 41
22 22 33 -13 164 -40 223 -47 28 -3 68 -10 90 -15 72 -17 415 -23 517 -9 233
31 435 103 597 213 41 27 86 60 100 73 89 78 96 79 104 21z"/>
</g>
</svg>
