<svg height="2500" width="2500" xmlns="http://www.w3.org/2000/svg" viewBox="0 0 512 512"><g fill="none"><circle cx="256" cy="256" fill="#000" r="256"/><path d="M256 112c-88.373 0-160 71.04-160 158.693v75.973h29.493v-7.572c0-35.547 29.04-64.374 64.88-64.374s64.88 28.827 64.88 64.374v7.572h29.494v-7.572c0-51.707-42.267-93.6-94.374-93.6-20.293 0-39.093 6.346-54.48 17.173 16.107-31.76 49.28-53.547 87.574-53.547 54.106 0 97.973 43.52 97.973 97.173v40.373h29.494v-40.373c0-69.813-57.067-126.426-127.467-126.426-31.654 0-60.614 11.44-82.907 30.4 21.893-41.04 65.36-69.014 115.44-69.014 72.08 0 130.506 57.947 130.506 129.44v75.973H416v-75.973C416 183.04 344.374 112 256 112z" fill="#fff"/></g></svg>