<?xml version="1.0" standalone="no"?>
<!DOCTYPE svg PUBLIC "-//W3C//DTD SVG 20010904//EN"
 "http://www.w3.org/TR/2001/REC-SVG-20010904/DTD/svg10.dtd">
<svg version="1.0" xmlns="http://www.w3.org/2000/svg"
 width="200.000000pt" height="200.000000pt" viewBox="0 0 200.000000 200.000000"
 preserveAspectRatio="xMidYMid meet">
<metadata>
Created by potrace 1.16, written by Peter Selinger 2001-2019
</metadata>
<g transform="translate(0.000000,200.000000) scale(0.100000,-0.100000)"
fill="#000000" stroke="none">
<path d="M910 1165 c0 -52 -1 -55 -25 -55 -22 0 -25 -4 -25 -34 0 -30 4 -35
26 -38 l26 -3 -1 -122 -2 -123 46 0 46 0 -2 114 c-1 63 2 119 5 125 4 6 16 11
27 11 15 0 19 7 19 36 0 31 -3 35 -22 32 -21 -3 -23 1 -26 55 l-3 57 -44 0
-45 0 0 -55z"/>
<path d="M1187 1110 c-36 -11 -58 -30 -51 -41 3 -5 0 -8 -8 -7 -7 2 -12 -3
-10 -10 1 -8 -2 -11 -7 -7 -15 9 -41 -49 -41 -93 0 -39 49 -132 70 -132 18 0
25 5 22 15 -2 5 0 7 4 3 4 -4 12 -4 18 2 8 6 12 3 13 -11 1 -14 -3 -19 -13
-15 -8 3 -14 1 -14 -4 0 -14 66 -23 97 -12 20 6 27 15 25 28 -3 16 0 15 18 -6
15 -18 32 -25 61 -26 l39 -1 0 159 0 158 -45 -2 c-25 0 -45 -5 -45 -9 0 -4 -7
-10 -16 -13 -8 -3 -12 -2 -9 3 3 5 2 12 -2 14 -18 11 -80 15 -106 7z m108 -81
c-4 -18 -1 -20 19 -15 25 6 45 -17 25 -29 -5 -4 -8 -3 -7 2 3 8 -5 13 -22 13
-7 0 -7 -6 -1 -18 5 -10 9 -27 8 -37 -2 -14 4 -19 18 -18 19 1 19 1 3 -11 -10
-7 -14 -17 -10 -21 4 -5 1 -5 -6 -1 -7 4 -9 13 -6 19 4 7 -4 3 -17 -8 -47 -39
-62 -43 -94 -25 -36 20 -58 57 -49 85 3 11 7 29 8 40 2 18 10 20 64 20 33 0
60 2 60 5 -1 11 2 20 6 20 3 0 3 -9 1 -21z"/>
<path d="M1570 1111 c0 -7 -5 -9 -10 -6 -14 9 -77 -32 -91 -57 -6 -11 -13 -30
-15 -42 -2 -11 -6 -33 -10 -48 -3 -16 -2 -28 2 -28 5 0 10 -12 10 -26 4 -63
121 -130 185 -106 13 5 27 9 31 8 12 -2 58 47 52 56 -3 5 0 7 7 6 7 -2 18 8
25 22 13 25 13 25 -31 28 -34 2 -49 -2 -64 -17 -28 -28 -76 -27 -110 2 -23 19
-26 27 -20 60 3 21 13 46 22 55 24 23 82 20 110 -6 16 -15 36 -22 65 -22 l41
0 -14 33 c-21 50 -76 89 -135 95 -35 3 -50 1 -50 -7z"/>
<path d="M230 950 l0 -160 50 0 50 0 0 160 0 160 -50 0 -50 0 0 -160z"/>
<path d="M370 950 l0 -160 45 0 45 0 0 104 c0 57 3 112 6 120 4 12 2 15 -9 10
-8 -3 -18 -1 -21 5 -9 14 13 24 27 12 7 -5 22 -8 33 -5 10 3 27 -1 38 -9 16
-12 18 -26 17 -125 l-2 -112 50 0 51 0 -1 98 c-1 132 -2 130 21 142 14 8 26 8
40 0 18 -10 20 -21 20 -125 l0 -115 51 0 51 0 -4 124 -3 124 -38 36 c-29 27
-47 36 -73 36 -35 0 -74 -15 -85 -33 -4 -5 -19 0 -36 12 -29 22 -62 23 -122 5
-17 -5 -22 -4 -17 4 5 9 -6 12 -38 12 l-46 0 0 -160z"/>
</g>
</svg>
