<?xml version="1.0" standalone="no"?>
<!DOCTYPE svg PUBLIC "-//W3C//DTD SVG 20010904//EN"
 "http://www.w3.org/TR/2001/REC-SVG-20010904/DTD/svg10.dtd">
<svg version="1.0" xmlns="http://www.w3.org/2000/svg"
 width="286.000000pt" height="176.000000pt" viewBox="0 0 286.000000 176.000000"
 preserveAspectRatio="xMidYMid meet">
<metadata>
Created by potrace 1.16, written by Peter Selinger 2001-2019
</metadata>
<g transform="translate(0.000000,176.000000) scale(0.100000,-0.100000)"
fill="#000000" stroke="none">
<path d="M1275 1704 c-388 -45 -623 -119 -851 -270 -99 -65 -228 -199 -272
-282 -39 -73 -72 -196 -72 -266 2 -405 451 -736 1110 -816 219 -26 555 -5 767
49 270 69 519 201 655 349 211 227 235 504 65 751 -133 194 -439 366 -780 440
-189 41 -474 61 -622 45z m440 -119 c469 -55 814 -232 936 -479 73 -150 73
-303 0 -451 -119 -239 -468 -418 -931 -476 -124 -16 -438 -16 -565 0 -508 63
-863 262 -961 539 -31 88 -33 221 -4 314 53 172 214 324 451 424 152 64 390
120 584 137 111 10 374 5 490 -8z"/>
<path d="M1120 1185 l0 -75 115 0 115 0 0 -310 0 -310 75 0 75 0 0 310 0 310
115 0 115 0 0 75 0 75 -305 0 -305 0 0 -75z"/>
<path d="M664 1241 c-102 -26 -201 -108 -250 -206 -26 -55 -29 -69 -29 -165 0
-93 3 -112 27 -162 34 -74 112 -152 186 -186 50 -24 69 -27 162 -27 96 0 110
3 165 29 76 38 143 105 181 181 26 55 29 69 29 165 0 97 -2 110 -30 164 -66
131 -185 208 -330 212 -44 2 -94 -1 -111 -5z m192 -150 c176 -80 194 -324 30
-425 -69 -43 -162 -48 -232 -13 -60 30 -86 58 -113 117 -53 117 -4 257 111
314 64 32 143 35 204 7z"/>
<path d="M1993 1236 c-104 -34 -195 -114 -241 -214 -23 -49 -27 -70 -27 -152
0 -87 3 -101 32 -160 39 -80 109 -152 183 -188 50 -24 65 -27 165 -27 101 0
114 2 163 28 55 29 136 97 153 128 7 14 -1 24 -48 53 l-56 35 -44 -40 c-57
-52 -99 -69 -170 -69 -75 1 -128 25 -180 84 -76 87 -77 86 123 86 l174 0 0 70
0 70 -175 0 -175 0 19 39 c73 143 269 174 386 61 l30 -29 57 35 c49 30 56 38
48 54 -17 32 -93 91 -150 118 -67 31 -199 40 -267 18z"/>
</g>
</svg>
