<?xml version="1.0" standalone="no"?>
<!DOCTYPE svg PUBLIC "-//W3C//DTD SVG 20010904//EN"
 "http://www.w3.org/TR/2001/REC-SVG-20010904/DTD/svg10.dtd">
<svg version="1.0" xmlns="http://www.w3.org/2000/svg"
 width="194.000000pt" height="259.000000pt" viewBox="0 0 194.000000 259.000000"
 preserveAspectRatio="xMidYMid meet">
<metadata>
Created by potrace 1.16, written by Peter Selinger 2001-2019
</metadata>
<g transform="translate(0.000000,259.000000) scale(0.100000,-0.100000)"
fill="#000000" stroke="none">
<path d="M1500 1609 l0 -982 92 7 c50 3 113 6 140 6 l48 0 0 975 0 975 -140 0
-140 0 0 -981z"/>
<path d="M610 2140 l0 -290 140 0 140 0 0 290 0 290 -140 0 -140 0 0 -290z"/>
<path d="M160 980 l0 -980 140 0 140 0 0 980 0 980 -140 0 -140 0 0 -980z"/>
<path d="M1060 1664 l0 -299 140 0 140 0 0 293 0 292 -57 0 c-32 0 -95 3 -140
7 l-83 6 0 -299z"/>
<path d="M610 935 l0 -295 140 0 140 0 0 295 0 295 -140 0 -140 0 0 -295z"/>
<path d="M1060 455 l0 -295 140 0 140 0 0 295 0 295 -140 0 -140 0 0 -295z"/>
</g>
</svg>
