<?xml version="1.0" standalone="no"?>
<!DOCTYPE svg PUBLIC "-//W3C//DTD SVG 20010904//EN"
 "http://www.w3.org/TR/2001/REC-SVG-20010904/DTD/svg10.dtd">
<svg version="1.0" xmlns="http://www.w3.org/2000/svg"
 width="1500.000000pt" height="697.000000pt" viewBox="0 0 1500.000000 697.000000"
 preserveAspectRatio="xMidYMid meet">
<metadata>
Created by potrace 1.16, written by Peter Selinger 2001-2019
</metadata>
<g transform="translate(0.000000,697.000000) scale(0.100000,-0.100000)"
fill="#000000" stroke="none">
<path d="M10815 6580 c-6 -321 -10 -390 -21 -390 -11 0 -14 -37 -14 -205 0
-176 -2 -205 -15 -205 -13 0 -15 -44 -15 -339 l0 -338 -38 -7 c-72 -11 -116
-92 -88 -161 19 -45 51 -72 94 -81 l32 -6 0 -334 0 -334 -45 0 -45 0 0 -110 0
-110 -50 0 -50 0 0 -80 0 -79 -112 -3 -113 -3 -5 -125 c-3 -69 -12 -144 -19
-167 l-14 -43 -74 0 -73 0 0 -183 0 -182 36 -53 36 -54 -38 -32 c-34 -30 -38
-38 -41 -92 -3 -47 0 -66 17 -92 30 -48 72 -62 190 -62 l100 0 0 -1340 0
-1340 430 0 430 0 0 1340 0 1340 104 0 c90 0 107 3 137 23 79 52 90 150 25
216 l-37 38 35 61 36 60 0 176 0 176 -68 0 -68 0 -17 68 c-11 42 -17 105 -17
170 l0 102 -125 0 -124 0 -3 78 -3 77 -55 5 -55 5 0 105 0 105 -47 3 -48 3 0
335 0 334 23 0 c33 0 84 35 102 69 41 80 -12 180 -97 181 l-28 0 0 340 c0 296
-2 340 -15 340 -13 0 -15 29 -15 205 0 176 -2 205 -15 205 -13 0 -15 28 -15
189 0 116 -4 192 -10 196 -6 4 -10 82 -10 201 l0 194 -39 0 -39 0 -7 -390z
m245 -2745 l0 -25 -185 0 -185 0 0 25 0 25 185 0 185 0 0 -25z m230 -345 l0
-70 -415 0 -415 0 0 70 0 70 415 0 415 0 0 -70z"/>
<path d="M0 3350 l0 -360 1778 2 1777 3 3 358 2 357 -1780 0 -1780 0 0 -360z"/>
<path d="M8405 3691 c-306 -58 -583 -222 -745 -441 -178 -241 -242 -515 -195
-835 17 -118 32 -167 78 -267 93 -202 241 -345 469 -453 93 -44 323 -124 473
-165 44 -12 121 -36 170 -52 315 -104 435 -248 396 -475 -30 -172 -123 -268
-300 -308 -92 -21 -305 -16 -396 9 -81 23 -235 98 -378 184 -167 100 -227 113
-323 68 -61 -28 -68 -37 -225 -286 l-122 -194 59 -53 c216 -194 584 -358 916
-408 128 -20 453 -20 568 0 615 102 1011 562 1014 1180 1 286 -80 499 -257
674 -166 164 -326 241 -867 415 -291 95 -436 188 -473 305 -21 66 -21 100 -2
176 30 115 95 186 216 237 49 20 70 22 229 22 167 0 178 -1 250 -28 74 -28
236 -106 315 -151 58 -34 120 -48 176 -40 63 9 124 63 175 155 83 150 184 348
183 361 -1 31 -183 156 -324 223 -157 75 -286 115 -475 147 -152 25 -471 25
-605 0z"/>
<path d="M13500 3703 c-247 -39 -231 -36 -409 -91 -142 -43 -374 -159 -501
-249 -113 -82 -274 -238 -356 -348 -193 -256 -303 -524 -356 -865 -17 -112
-17 -497 0 -610 44 -285 127 -533 249 -739 131 -221 330 -426 537 -551 205
-125 411 -199 651 -236 120 -18 516 -18 650 0 327 46 620 178 831 377 72 66
164 171 164 184 0 17 -338 374 -369 389 -81 42 -139 28 -256 -60 -149 -110
-229 -149 -378 -180 -120 -26 -376 -25 -477 0 -466 118 -740 535 -740 1126 0
291 59 513 188 715 174 272 434 418 772 432 232 10 424 -32 580 -128 205 -125
200 -123 271 -123 98 -1 122 19 299 259 83 112 150 209 150 217 0 17 -86 101
-165 160 -161 120 -375 220 -585 273 -170 44 -276 55 -504 54 -121 -1 -232 -4
-246 -6z"/>
<path d="M4250 3335 l0 -345 505 0 505 0 0 -1480 0 -1480 430 0 430 0 0 1480
0 1480 510 0 510 0 -2 343 -3 342 -1442 3 -1443 2 0 -345z"/>
<path d="M0 1430 l0 -360 890 0 890 0 -2 358 -3 357 -887 3 -888 2 0 -360z"/>
<path d="M0 440 l0 -360 2285 0 2285 0 -2 357 -3 358 -2282 3 -2283 2 0 -360z"/>
</g>
</svg>
